<?xml version="1.0" encoding="UTF-8" standalone="no"?>
<!-- Created with Inkscape (http://www.inkscape.org/) -->

<svg
   width="210mm"
   height="297mm"
   viewBox="0 0 210 297"
   version="1.1"
   id="svg5"
   inkscape:version="1.4.2 (f4327f4, 2025-05-13)"
   sodipodi:docname="Logo Gere.svg"
   xmlns:inkscape="http://www.inkscape.org/namespaces/inkscape"
   xmlns:sodipodi="http://sodipodi.sourceforge.net/DTD/sodipodi-0.dtd"
   xmlns="http://www.w3.org/2000/svg"
   xmlns:svg="http://www.w3.org/2000/svg">
  <sodipodi:namedview
     id="namedview7"
     pagecolor="#ffffff"
     bordercolor="#666666"
     borderopacity="1.0"
     inkscape:pageshadow="2"
     inkscape:pageopacity="0.0"
     inkscape:pagecheckerboard="0"
     inkscape:document-units="mm"
     showgrid="false"
     inkscape:zoom="0.22645918"
     inkscape:cx="167.80066"
     inkscape:cy="275.98793"
     inkscape:window-width="2560"
     inkscape:window-height="1369"
     inkscape:window-x="-8"
     inkscape:window-y="-8"
     inkscape:window-maximized="1"
     inkscape:current-layer="layer1"
     inkscape:showpageshadow="2"
     inkscape:deskcolor="#d1d1d1" />
  <defs
     id="defs2" />
  <g
     inkscape:label="Camada 1"
     inkscape:groupmode="layer"
     id="layer1">
    <path
       sodipodi:type="star"
       style="fill:#f2f2f2;stroke:#f2f2f2;stroke-width:0.264583"
       id="path1"
       inkscape:flatsided="false"
       sodipodi:sides="6"
       sodipodi:cx="-302.36996"
       sodipodi:cy="-252.80112"
       sodipodi:r1="119.45561"
       sodipodi:r2="137.97772"
       sodipodi:arg1="1.0507011"
       sodipodi:arg2="1.5742999"
       inkscape:rounded="0.013627746"
       inkscape:randomized="0"
       d="m -243.00497,-149.1409 c -0.81585,0.46723 -58.90825,34.31995 -59.84841,34.31666 -0.94016,-0.003 -58.79392,-34.26224 -59.60647,-34.73518 -0.81255,-0.47293 -59.17607,-33.85606 -59.6433,-34.67191 -0.46723,-0.81584 0.27501,-68.04815 0.27831,-68.9883 0.003,-0.94016 -0.26783,-68.17602 0.2051,-68.98857 0.47293,-0.81256 59.06894,-33.78591 59.88478,-34.25314 0.81585,-0.46722 58.90825,-34.31995 59.84841,-34.31665 0.94016,0.003 58.79392,34.26224 59.60647,34.73517 0.81255,0.47293 59.17608,33.85607 59.6433,34.67191 0.46723,0.81585 -0.27501,68.04815 -0.27831,68.98831 -0.003,0.94016 0.26783,68.17602 -0.2051,68.98857 -0.47293,0.81255 -59.06894,33.78591 -59.88478,34.25313 z"
       inkscape:transform-center-x="0.99932556"
       inkscape:transform-center-y="-32.584433"
       transform="matrix(2.6840367,-0.00816216,0.00789839,2.7736682,1381.5493,838.84192)"
       inkscape:export-filename="C:\Users\User\Documents\GitHub\Gere\logo_gere_fundo_branco512px.png"
       inkscape:export-xdpi="16.969999"
       inkscape:export-ydpi="16.969999" />
    <g
       id="g33823"
       transform="matrix(3.9406687,0,0,3.9406687,125.53949,-408.91776)"
       inkscape:export-filename="C:\Users\User\Documents\GitHub\Gere\Logo - img.png"
       inkscape:export-xdpi="90"
       inkscape:export-ydpi="90">
      <path
         style="fill:#82ab90;fill-opacity:1;stroke-width:0.26633;stroke-linejoin:round"
         d="m 101.19163,182.46122 c -60.460581,-36.29207 11.37632,6.51464 -60.460581,-36.29207 l -6e-5,-19.96062 -7e-5,-25.25229 0.28629,0.17171 c 0.15743,0.0944 5.26365,2.87267 11.05979,6.63414 l 10.77351,6.46243 0.0213,11.85388 0.0213,6.5622 49.419681,29.80827 c 0.0803,-0.002 7.07946,-4.17066 15.55364,-9.2643 8.47418,-5.09365 15.47808,-9.29334 15.56421,-9.33264 0.1343,-0.0613 0.90121,0.37447 5.38291,3.05844 l 5.22629,3.1299 0.002,7.01085 0.002,7.01084 -20.60406,12.37644 c -11.33227,6.80705 -20.72457,12.44891 -20.87183,12.53746 l -0.26772,0.16102 -11.10947,-6.67566 z"
         id="path6199"
         sodipodi:nodetypes="ccccssccccssscccssccc" />
      <path
         style="fill:#4b8960;fill-opacity:1;stroke-width:0.26633;stroke-linejoin:round"
         d="m 123.39678,96.100455 c 60.46058,36.292065 -11.37632,-6.51464 60.46058,36.292065 l 6e-5,19.96062 7e-5,25.25229 -0.28629,-0.17171 c -0.15743,-0.0944 -5.13437,-3.07981 -11.05979,-6.63414 l -10.77351,-6.46243 -0.0213,-11.85388 -0.0213,-6.5622 -49.41968,-29.80826 c -0.0803,0.002 -7.07946,4.17065 -15.553641,9.26429 -8.47418,5.09365 -15.47808,9.29334 -15.56421,9.33264 -0.1343,0.0613 -0.90121,-0.37447 -5.38291,-3.05844 l -5.22629,-3.1299 -0.002,-7.01085 -0.002,-7.01083 20.60406,-12.37645 C 102.4809,95.316225 111.8732,89.674365 112.02046,89.585815 l 0.26772,-0.16102 11.10947,6.67566 z"
         id="path6765"
         sodipodi:nodetypes="ccccssccccssscccssccc" />
      <path
         style="fill:#2a593a;fill-opacity:1;stroke-width:0.188322;stroke-linejoin:round"
         d="m 112.4399,80.503217 -45.746241,27.136773 -10.89853,-6.65214 c -5.99422,-3.658681 -10.89869,-6.664035 -10.89885,-6.678571 0,-0.03201 67.386491,-40.074207 67.477641,-40.0967 71.48057,42.89788 0,0 71.48057,42.89788 l 0.003,13.153811 c 0,7.2346 -0.004,13.15264 -0.0116,13.15119 z"
         id="path9391"
         sodipodi:nodetypes="ccscccccc" />
      <path
         style="fill:#272626;fill-opacity:1;stroke-width:0.188322;stroke-linejoin:round"
         d="m 112.14851,199.15403 45.74624,-27.13677 10.89853,6.65214 c 5.99422,3.65868 10.89869,6.66403 10.89885,6.67857 0,0.032 -67.38649,40.0742 -67.47764,40.0967 -71.480571,-42.89788 0,0 -71.480571,-42.89788 l -0.003,-13.15381 c 0,-7.2346 0.004,-13.15264 0.0116,-13.15119 z"
         id="path10931"
         sodipodi:nodetypes="ccscccccc" />
    </g>
    <g
       id="g5"
       transform="matrix(3.9406687,0,0,3.9406687,-883.91397,-436.95813)"
       inkscape:export-filename="C:\Users\User\Documents\GitHub\Gere\logo_gere_fundo_transp512px.png"
       inkscape:export-xdpi="19.27"
       inkscape:export-ydpi="19.27">
      <path
         style="fill:#82ab90;fill-opacity:1;stroke-width:0.26633;stroke-linejoin:round"
         d="m 101.19163,182.46122 c -60.460581,-36.29207 11.37632,6.51464 -60.460581,-36.29207 l -6e-5,-19.96062 -7e-5,-25.25229 0.28629,0.17171 c 0.15743,0.0944 5.26365,2.87267 11.05979,6.63414 l 10.77351,6.46243 0.0213,11.85388 0.0213,6.5622 49.419681,29.80827 c 0.0803,-0.002 7.07946,-4.17066 15.55364,-9.2643 8.47418,-5.09365 15.47808,-9.29334 15.56421,-9.33264 0.1343,-0.0613 0.90121,0.37447 5.38291,3.05844 l 5.22629,3.1299 0.002,7.01085 0.002,7.01084 -20.60406,12.37644 c -11.33227,6.80705 -20.72457,12.44891 -20.87183,12.53746 l -0.26772,0.16102 -11.10947,-6.67566 z"
         id="path2"
         sodipodi:nodetypes="ccccssccccssscccssccc" />
      <path
         style="fill:#4b8960;fill-opacity:1;stroke-width:0.26633;stroke-linejoin:round"
         d="m 123.39678,96.100455 c 60.46058,36.292065 -11.37632,-6.51464 60.46058,36.292065 l 6e-5,19.96062 7e-5,25.25229 -0.28629,-0.17171 c -0.15743,-0.0944 -5.13437,-3.07981 -11.05979,-6.63414 l -10.77351,-6.46243 -0.0213,-11.85388 -0.0213,-6.5622 -49.41968,-29.80826 c -0.0803,0.002 -7.07946,4.17065 -15.553641,9.26429 -8.47418,5.09365 -15.47808,9.29334 -15.56421,9.33264 -0.1343,0.0613 -0.90121,-0.37447 -5.38291,-3.05844 l -5.22629,-3.1299 -0.002,-7.01085 -0.002,-7.01083 20.60406,-12.37645 C 102.4809,95.316225 111.8732,89.674365 112.02046,89.585815 l 0.26772,-0.16102 11.10947,6.67566 z"
         id="path3"
         sodipodi:nodetypes="ccccssccccssscccssccc" />
      <path
         style="fill:#2a593a;fill-opacity:1;stroke-width:0.188322;stroke-linejoin:round"
         d="m 112.4399,80.503217 -45.746241,27.136773 -10.89853,-6.65214 c -5.99422,-3.658681 -10.89869,-6.664035 -10.89885,-6.678571 0,-0.03201 67.386491,-40.074207 67.477641,-40.0967 71.48057,42.89788 0,0 71.48057,42.89788 l 0.003,13.153811 c 0,7.2346 -0.004,13.15264 -0.0116,13.15119 z"
         id="path4"
         sodipodi:nodetypes="ccscccccc" />
      <path
         style="fill:#272626;fill-opacity:1;stroke-width:0.188322;stroke-linejoin:round"
         d="m 112.14851,199.15403 45.74624,-27.13677 10.89853,6.65214 c 5.99422,3.65868 10.89869,6.66403 10.89885,6.67857 0,0.032 -67.38649,40.0742 -67.47764,40.0967 -71.480571,-42.89788 0,0 -71.480571,-42.89788 l -0.003,-13.15381 c 0,-7.2346 0.004,-13.15264 0.0116,-13.15119 z"
         id="path5"
         sodipodi:nodetypes="ccscccccc" />
    </g>
  </g>
</svg>
