<?xml version="1.0" encoding="UTF-8" standalone="no"?>
<svg
   viewBox="0 0 40 40"
   version="1.1"
   id="svg4"
   sodipodi:docname="favicon.svg"
   inkscape:version="1.4.2 (f4327f4, 2025-05-13)"
   xmlns:inkscape="http://www.inkscape.org/namespaces/inkscape"
   xmlns:sodipodi="http://sodipodi.sourceforge.net/DTD/sodipodi-0.0"
   xmlns="http://www.w3.org/2000/svg"
   xmlns:svg="http://www.w3.org/2000/svg">
  <defs
     id="defs4" />
  <g
     id="g4"
     transform="matrix(1.0941259,0,0,1.0941259,-2.5906833,-1.8521276)">
    <g
       id="g33823"
       transform="matrix(0.19874887,0,0,0.19874887,-1.6677513,-7.7281898)">
      <path
         style="fill:#82ab90;fill-opacity:1;stroke-width:0.26633;stroke-linejoin:round"
         d="m 101.19163,182.46122 c -60.460581,-36.29207 11.37632,6.51464 -60.460581,-36.29207 l -6e-5,-19.96062 -7e-5,-25.25229 0.28629,0.17171 c 0.15743,0.0944 5.26365,2.87267 11.05979,6.63414 l 10.77351,6.46243 0.0213,11.85388 0.0213,6.5622 49.419681,29.80827 c 0.0803,-0.002 7.07946,-4.17066 15.55364,-9.2643 8.47418,-5.09365 15.47808,-9.29334 15.56421,-9.33264 0.1343,-0.0613 0.90121,0.37447 5.38291,3.05844 l 5.22629,3.1299 0.002,7.01085 0.002,7.01084 -20.60406,12.37644 c -11.33227,6.80705 -20.72457,12.44891 -20.87183,12.53746 l -0.26772,0.16102 -11.10947,-6.67566 z"
         id="path6199" />
      <path
         style="fill:#4b8960;fill-opacity:1;stroke-width:0.26633;stroke-linejoin:round"
         d="m 123.39678,96.100455 c 60.46058,36.292065 -11.37632,-6.51464 60.46058,36.292065 l 6e-5,19.96062 7e-5,25.25229 -0.28629,-0.17171 c -0.15743,-0.0944 -5.13437,-3.07981 -11.05979,-6.63414 l -10.77351,-6.46243 -0.0213,-11.85388 -0.0213,-6.5622 -49.41968,-29.80826 c -0.0803,0.002 -7.07946,4.17065 -15.553641,9.26429 -8.47418,5.09365 -15.47808,9.29334 -15.56421,9.33264 -0.1343,0.0613 -0.90121,-0.37447 -5.38291,-3.05844 l -5.22629,-3.1299 -0.002,-7.01085 -0.002,-7.01083 20.60406,-12.37645 C 102.4809,95.316225 111.8732,89.674365 112.02046,89.585815 l 0.26772,-0.16102 11.10947,6.67566 z"
         id="path6765" />
      <path
         style="fill:#2a593a;fill-opacity:1;stroke-width:0.188322;stroke-linejoin:round"
         d="m 112.4399,80.503217 -45.746241,27.136773 -10.89853,-6.65214 c -5.99422,-3.658681 -10.89869,-6.664035 -10.89885,-6.678571 0,-0.03201 67.386491,-40.074207 67.477641,-40.0967 71.48057,42.89788 0,0 71.48057,42.89788 l 0.003,13.153811 c 0,7.2346 -0.004,13.15264 -0.0116,13.15119 z"
         id="path9391" />
      <path
         style="fill:#272626;fill-opacity:1;stroke-width:0.188322;stroke-linejoin:round"
         d="m 112.14851,199.15403 45.74624,-27.13677 10.89853,6.65214 c 5.99422,3.65868 10.89869,6.66403 10.89885,6.67857 0,0.032 -67.38649,40.0742 -67.47764,40.0967 -71.480571,-42.89788 0,0 -71.480571,-42.89788 l -0.003,-13.15381 c 0,-7.2346 0.004,-13.15264 0.0116,-13.15119 z"
         id="path10931" />
    </g>
  </g>
</svg>
